PathFileType	4	(X/Y/Z)	Patient4_TMGait_0pt4_02_right_11.trc.trc
DataRate	CameraRate	NumFrames	NumMarkers	Units	OrigDataRate	OrigDataStartFrame	OrigNumFrames
74.074074074074	74.074074074074	4	33	mm	74.074074074074	18	       141
Frame#	Time	Sacral			L.Shoulder			Chest			R.Shoulder			Neck			R.ASIS			L.ASIS			R.Thigh.Superior			R.Thigh.Lateral			R.Thigh.Inferior			R.Patella			L.Thigh.Superior			L.Thigh.Lateral			L.Thigh.Inferior			L.Patella			L.Shank.Superior			L.Shank.Lateral			L.Shank.Inferior			R.Shank.Superior			R.Shank.Lateral			R.Shank.Inferior			R.Heel			R.Midfoot.Superior			R.Midfoot.Lateral			R.Toe			L.Heel			L.Midfoot.Lateral			L.Midfoot.Superior			L.Toe			L.Elbow			L.Wrist			R.Elbow			R.Wrist			
		X1	Y1	Z1	X2	Y2	Z2	X3	Y3	Z3	X4	Y4	Z4	X5	Y5	Z5	X6	Y6	Z6	X7	Y7	Z7	X8	Y8	Z8	X9	Y9	Z9	X10	Y10	Z10	X11	Y11	Z11	X12	Y12	Z12	X13	Y13	Z13	X14	Y14	Z14	X15	Y15	Z15	X16	Y16	Z16	X17	Y17	Z17	X18	Y18	Z18	X19	Y19	Z19	X20	Y20	Z20	X21	Y21	Z21	X22	Y22	Z22	X23	Y23	Z23	X24	Y24	Z24	X25	Y25	Z25	X26	Y26	Z26	X27	Y27	Z27	X28	Y28	Z28	X29	Y29	Z29	X30	Y30	Z30	X31	Y31	Z31	X32	Y32	Z32	X33	Y33	Z33	

18	14.249500000000	887.833412916847	1011.444158180835	410.633556876610	1099.899344859396	1428.442517737850	223.739232532015	1180.041255389579	1367.605840157987	399.283330491084	1077.605989476326	1450.950763244924	557.993370495990	1067.795578214914	1497.270656782049	369.339660350447	1106.751514775029	953.380804510695	549.907749130896	1114.289697548078	960.590707941226	273.765087433997	1168.716908259629	765.246480879978	529.066325672486	1115.963564245800	651.455347975758	605.762505372829	1199.652910757617	602.773067094892	526.955352476316	1226.649201655847	523.675322922712	546.389407004098	1129.178536136805	738.752300774410	306.518563494145	1024.451557562509	635.859359460000	239.133042541724	1092.681048541946	548.015953752875	304.262224857916	1081.445154362365	481.301194852643	313.033499021912	1051.200626286557	412.222266776872	304.896289563027	951.987864188895	304.593259148953	255.479525699348	994.571263292917	190.115122814181	327.307471317184	1211.256451223580	438.144166423463	560.350704982210	1159.513245242091	326.993201180691	629.255900464007	1227.727960660183	239.025203186635	579.136230094476	1134.991132998436	52.279749453386	559.680365867707	1300.560111366384	124.440752807435	593.799173155319	1221.800136004743	49.894385262079	630.351903240681	1425.176728585243	85.377333752083	614.974085606192	860.182763461276	39.611657325341	375.867178639576	930.355197803987	35.259219143499	292.195988253685	1015.335570003069	95.627720894792	315.711754270557	1142.703818543185	41.062906510377	282.209198034493	1155.331537323741	1094.035442243969	82.040894441086	1386.063175312678	970.552581502695	90.186730443773	931.587764808356	1142.324677350939	678.527485171244	908.656358270499	882.046411625860	697.401066104880	
19	14.263000000000	888.682301508953	1010.523114917149	411.758516620061	1100.348501929242	1427.856469636724	225.960674179613	1179.943838513012	1367.182827263226	401.796065932774	1076.692250017795	1450.331500283282	560.097963596192	1067.471554786702	1496.644917034929	371.584239298677	1106.932235902850	952.319539980807	552.101838095787	1115.694628028092	960.144553237195	275.848959980470	1167.338527468547	762.778346511266	531.673790310544	1112.062068633770	648.756742154381	606.424272585267	1196.265053146173	600.229555818202	528.173074555196	1222.203369060588	521.874646091332	546.421450184537	1128.703430182951	737.697869419878	308.198616396356	1023.032807999090	635.707117450675	240.178142345151	1089.994286506768	547.231169729485	305.451870262856	1078.135841196930	480.636381219024	313.981793861213	1047.584437480490	411.794800731521	305.612106476135	947.788253158429	304.802213474386	255.833438489623	989.613594649463	189.886359435043	327.474316790099	1207.899848201225	436.163808707599	559.890971705488	1156.701198470188	323.904541687507	627.257858438680	1226.547449367133	237.092099134805	577.214167657518	1136.051435588459	50.039206642990	555.544406329567	1300.935076201410	122.475154771660	591.250291412440	1222.163987696387	47.806984867735	626.954793321158	1425.509433168470	83.787116734090	613.274503129550	854.738399609830	39.636551964018	375.822652537880	924.913051895351	35.255632919708	292.177608110054	1009.889059559480	95.599688315153	315.721836471448	1137.247598005072	40.983473467919	282.220839338639	1155.825028544093	1093.322685780698	84.637173234075	1387.281951136503	971.488493890973	94.220514947002	929.953456141571	1142.059603798472	679.895362791372	907.776879809162	881.644934072302	698.937151091866	
20	14.276500000000	889.727461445363	1009.429311819254	413.201345223880	1100.508682176577	1427.263419382337	228.390815130999	1179.764498440563	1366.816838751816	404.449304083572	1075.717188888906	1449.618957375242	562.435600344691	1066.939067271834	1495.956871710944	374.098792472273	1107.477853926547	951.187181471768	554.339260088724	1117.202998885166	959.688639670621	278.035412592643	1166.759934516482	760.405537121380	534.220215246208	1108.818731764507	646.012218009390	606.790565367001	1193.646669576513	597.811726825501	529.210521778880	1218.342630946490	519.788907868666	546.194922175473	1128.438809193732	736.606028356909	309.806949919308	1021.740473491965	635.534113449052	241.335441082668	1087.524890662622	546.419382986695	306.634839757380	1075.078570174156	479.897992421996	314.944616047813	1044.137606385079	411.323257181392	306.367061634097	943.665336523803	305.044696137833	256.262418766130	984.718204188286	189.647745422385	327.648077287992	1204.470548934460	433.687970916274	559.114778396728	1152.878849965548	320.857779041836	624.998962999486	1223.418373803504	234.634102010193	575.005837077675	1133.500685531996	48.251559398115	551.389250622509	1298.102710606005	119.724286968663	588.302852510603	1218.897684806109	45.793912436180	623.560772849916	1422.412614568846	80.678595538623	611.414150157066	849.286767017455	39.651908752318	375.774162936448	919.475850812699	35.249613630531	292.166036806967	1004.438141641488	95.577479980831	315.733626513147	1131.795929994100	40.896477634451	282.225055799690	1155.976958263659	1092.510661893313	87.498271312163	1387.788334691718	971.578455526877	98.451012172483	929.061288020030	1141.291517303481	681.665362344415	908.626742912234	880.662550629042	700.804597375882	
21	14.290000000000	890.936810766012	1008.188047402563	414.949455866577	1100.403522347871	1426.674105273510	231.032362043274	1179.523411766630	1366.505540521870	407.247852841395	1074.708214598614	1448.812328854367	565.016328555136	1066.235242613235	1495.218540228774	376.881295671203	1108.371111293416	950.003968840271	556.606667863107	1118.785740703575	959.230084905245	280.310408194014	1166.958955386591	758.130344091109	536.662181603297	1106.275047474818	643.302668315740	606.919865737003	1191.780044574936	595.549754742752	530.067563297214	1215.071013894579	517.481542867353	545.717673325394	1128.382047172009	735.492816687340	311.327016268471	1020.586833562105	635.341815630775	242.609945763851	1085.311323553475	545.586312841261	307.814287471702	1072.327202278972	479.074690625800	315.926149987495	1040.897626616923	410.801688879136	307.168805173008	939.644468970207	305.326101546601	256.778864774467	979.894071967662	189.398453894406	327.836618641353	1201.095242386990	430.821775645320	558.087337270516	1148.370946939746	317.877532784643	622.646153682612	1218.757881237630	231.719103823894	572.619251529732	1127.964506424324	46.781641549823	547.449364297457	1292.652649108311	116.352887202179	585.091984938203	1212.699589303541	43.860687367299	620.334949667228	1416.568169566030	76.376570695702	609.401213456533	843.826712241414	39.670142333276	375.717171678920	914.046437453901	35.241768727082	292.161095501038	998.989970754364	95.562231149266	315.746641324796	1126.355380861347	40.799361858360	282.221317539456	1155.771607167382	1091.602125790662	90.624213054796	1387.584244062790	970.819036925418	102.832779453488	928.887271669860	1140.038736141423	683.837976281833	911.145125122620	879.142471561589	703.010859265392	
